<svg xmlns="http://www.w3.org/2000/svg" xmlns:xlink="http://www.w3.org/1999/xlink" width="1920" zoomAndPan="magnify" viewBox="0 0 1440 809.999993" height="1080" preserveAspectRatio="xMidYMid meet" version="1.0"><defs><clipPath id="1652ed04ff"><path d="M 57 88.164062 L 204 88.164062 L 204 297 L 57 297 Z M 57 88.164062 " clip-rule="nonzero"/></clipPath><clipPath id="7d87c446c9"><path d="M 177.160156 261.175781 C 177.160156 263.84375 176.160156 266.125 174.101562 268.070312 C 172.042969 270.019531 169.707031 270.964844 167.039062 270.964844 L 122.269531 270.964844 C 115.207031 270.964844 108.644531 269.183594 102.691406 265.679688 C 96.742188 262.175781 91.957031 257.449219 88.398438 251.554688 C 84.839844 245.660156 83.117188 239.152344 83.117188 232.144531 L 83.117188 191.378906 L 57.03125 191.378906 L 57.03125 232.144531 C 57.03125 243.824219 59.980469 254.613281 65.875 264.570312 C 71.769531 274.523438 79.667969 282.367188 89.621094 288.09375 C 99.578125 293.820312 110.421875 296.714844 122.210938 296.714844 L 172.042969 296.714844 C 177.605469 296.714844 182.777344 295.324219 187.558594 292.597656 C 192.34375 289.875 196.179688 286.089844 198.960938 281.308594 C 201.742188 276.527344 203.132812 271.410156 203.132812 265.902344 L 203.132812 89.101562 L 177.105469 88.824219 Z M 177.160156 261.175781 " clip-rule="nonzero"/></clipPath><clipPath id="5859f47ab7"><path d="M 0 0.71875 L 146.199219 0.71875 L 146.199219 208.800781 L 0 208.800781 Z M 0 0.71875 " clip-rule="nonzero"/></clipPath><clipPath id="24eb1b88f3"><path d="M 120.160156 173.175781 C 120.160156 175.84375 119.160156 178.125 117.101562 180.070312 C 115.042969 182.019531 112.707031 182.964844 110.039062 182.964844 L 65.269531 182.964844 C 58.207031 182.964844 51.644531 181.183594 45.691406 177.679688 C 39.742188 174.175781 34.957031 169.449219 31.398438 163.554688 C 27.839844 157.660156 26.117188 151.152344 26.117188 144.144531 L 26.117188 103.378906 L 0.03125 103.378906 L 0.03125 144.144531 C 0.03125 155.824219 2.980469 166.613281 8.875 176.570312 C 14.769531 186.523438 22.667969 194.367188 32.621094 200.09375 C 42.578125 205.820312 53.421875 208.714844 65.210938 208.714844 L 115.042969 208.714844 C 120.605469 208.714844 125.777344 207.324219 130.558594 204.597656 C 135.34375 201.875 139.179688 198.089844 141.960938 193.308594 C 144.742188 188.527344 146.132812 183.410156 146.132812 177.902344 L 146.132812 1.101562 L 120.105469 0.824219 Z M 120.160156 173.175781 " clip-rule="nonzero"/></clipPath><clipPath id="142ee426be"><rect x="0" width="147" y="0" height="209"/></clipPath><clipPath id="3cd35f1c55"><path d="M 242.398438 88.378906 L 268.425781 88.378906 L 268.425781 263.566406 L 242.398438 263.566406 Z M 242.398438 88.378906 " clip-rule="nonzero"/></clipPath><clipPath id="2106338558"><path d="M 0.398438 0.378906 L 26.425781 0.378906 L 26.425781 175.566406 L 0.398438 175.566406 Z M 0.398438 0.378906 " clip-rule="nonzero"/></clipPath><clipPath id="e7005c36f1"><rect x="0" width="27" y="0" height="176"/></clipPath><clipPath id="725e8fb578"><path d="M 304.90625 71.003906 L 708 71.003906 L 708 264 L 304.90625 264 Z M 304.90625 71.003906 " clip-rule="nonzero"/></clipPath><clipPath id="e6dce06903"><path d="M 707.894531 207.785156 L 707.894531 236.316406 C 707.894531 251.386719 695.660156 263.621094 680.589844 263.621094 L 445.503906 263.621094 C 437.941406 263.621094 430.710938 262.289062 423.925781 259.617188 C 417.417969 257.117188 411.6875 253.5 406.683594 248.886719 C 406.238281 248.441406 405.515625 248.496094 405.125 248.941406 C 400.398438 254.058594 394.726562 257.949219 387.941406 260.621094 C 383.269531 262.453125 375.261719 263.621094 370.3125 263.621094 L 306.078125 263.621094 C 305.464844 263.621094 304.910156 263.121094 304.910156 262.453125 L 304.910156 238.984375 C 304.910156 238.316406 305.464844 237.816406 306.132812 237.816406 L 371.703125 237.816406 C 374.707031 237.816406 377.429688 237.261719 379.820312 236.09375 C 382.214844 234.925781 383.9375 233.425781 385.105469 231.589844 C 387.773438 228.585938 389.164062 225.082031 389.164062 221.078125 C 389.164062 220.242188 389 218.851562 388.664062 216.796875 L 369.476562 145.273438 C 369.3125 144.664062 369.699219 144.050781 370.3125 143.882812 L 392.835938 137.710938 C 393.449219 137.542969 394.113281 137.933594 394.28125 138.542969 L 414.96875 213.957031 C 416.804688 220.964844 420.476562 226.695312 426.09375 231.144531 C 431.710938 235.59375 438.160156 237.761719 445.558594 237.761719 L 675.859375 237.761719 C 677.53125 237.761719 678.976562 237.207031 680.144531 236.039062 C 681.3125 234.871094 681.921875 233.425781 681.921875 231.753906 L 681.921875 209.230469 C 681.921875 202.113281 680.085938 195.4375 676.527344 189.320312 C 672.96875 183.203125 668.019531 178.476562 662.011719 174.972656 C 656.007812 171.46875 649.277344 169.746094 642.046875 169.746094 L 503.953125 169.746094 C 503.566406 169.746094 503.230469 169.523438 503.007812 169.1875 L 484.824219 141.882812 C 484.546875 141.4375 484.546875 140.9375 484.824219 140.546875 L 534.765625 71.527344 C 535.15625 71.027344 535.878906 70.917969 536.378906 71.304688 L 555.953125 84.988281 C 556.511719 85.375 556.621094 86.101562 556.234375 86.65625 L 515.800781 141.882812 C 515.246094 142.660156 515.800781 143.71875 516.746094 143.71875 L 643.4375 143.71875 C 655.0625 143.71875 665.792969 146.609375 675.636719 152.335938 C 685.480469 158.066406 693.378906 165.851562 699.164062 175.640625 C 704.949219 185.429688 707.894531 196.105469 707.894531 207.785156 " clip-rule="nonzero"/></clipPath><clipPath id="778d216804"><path d="M 0.90625 0.00390625 L 403.921875 0.00390625 L 403.921875 192.679688 L 0.90625 192.679688 Z M 0.90625 0.00390625 " clip-rule="nonzero"/></clipPath><clipPath id="6e5fade51e"><path d="M 403.894531 136.785156 L 403.894531 165.316406 C 403.894531 180.386719 391.660156 192.621094 376.589844 192.621094 L 141.503906 192.621094 C 133.941406 192.621094 126.710938 191.289062 119.925781 188.617188 C 113.417969 186.117188 107.6875 182.5 102.683594 177.886719 C 102.238281 177.441406 101.515625 177.496094 101.125 177.941406 C 96.398438 183.058594 90.726562 186.949219 83.941406 189.621094 C 79.269531 191.453125 71.261719 192.621094 66.3125 192.621094 L 2.078125 192.621094 C 1.464844 192.621094 0.910156 192.121094 0.910156 191.453125 L 0.910156 167.984375 C 0.910156 167.316406 1.464844 166.816406 2.132812 166.816406 L 67.703125 166.816406 C 70.707031 166.816406 73.429688 166.261719 75.820312 165.09375 C 78.214844 163.925781 79.9375 162.425781 81.105469 160.589844 C 83.773438 157.585938 85.164062 154.082031 85.164062 150.078125 C 85.164062 149.242188 85 147.851562 84.664062 145.796875 L 65.476562 74.273438 C 65.3125 73.664062 65.699219 73.050781 66.3125 72.882812 L 88.835938 66.710938 C 89.449219 66.542969 90.113281 66.933594 90.28125 67.542969 L 110.96875 142.957031 C 112.804688 149.964844 116.476562 155.695312 122.09375 160.144531 C 127.710938 164.59375 134.160156 166.761719 141.558594 166.761719 L 371.859375 166.761719 C 373.53125 166.761719 374.976562 166.207031 376.144531 165.039062 C 377.3125 163.871094 377.921875 162.425781 377.921875 160.753906 L 377.921875 138.230469 C 377.921875 131.113281 376.085938 124.4375 372.527344 118.320312 C 368.96875 112.203125 364.019531 107.476562 358.011719 103.972656 C 352.007812 100.46875 345.277344 98.746094 338.046875 98.746094 L 199.953125 98.746094 C 199.566406 98.746094 199.230469 98.523438 199.007812 98.1875 L 180.824219 70.882812 C 180.546875 70.4375 180.546875 69.9375 180.824219 69.546875 L 230.765625 0.527344 C 231.15625 0.0273438 231.878906 -0.0820312 232.378906 0.304688 L 251.953125 13.988281 C 252.511719 14.375 252.621094 15.101562 252.234375 15.65625 L 211.800781 70.882812 C 211.246094 71.660156 211.800781 72.71875 212.746094 72.71875 L 339.4375 72.71875 C 351.0625 72.71875 361.792969 75.609375 371.636719 81.335938 C 381.480469 87.066406 389.378906 94.851562 395.164062 104.640625 C 400.949219 114.429688 403.894531 125.105469 403.894531 136.785156 " clip-rule="nonzero"/></clipPath><clipPath id="a3452f9f01"><rect x="0" width="404" y="0" height="193"/></clipPath><clipPath id="91985ef5b8"><path d="M 752.886719 88.378906 L 778.914062 88.378906 L 778.914062 262.84375 L 752.886719 262.84375 Z M 752.886719 88.378906 " clip-rule="nonzero"/></clipPath><clipPath id="1b1ed903c6"><path d="M 0.886719 0.378906 L 26.914062 0.378906 L 26.914062 174.84375 L 0.886719 174.84375 Z M 0.886719 0.378906 " clip-rule="nonzero"/></clipPath><clipPath id="ab3f444e63"><rect x="0" width="27" y="0" height="175"/></clipPath><clipPath id="70b4b1396a"><path d="M 741 28 L 793 28 L 793 75 L 741 75 Z M 741 28 " clip-rule="nonzero"/></clipPath><clipPath id="e5bd2f81df"><path d="M 762.898438 57.679688 C 761.285156 55.566406 760.507812 53.398438 760.507812 51.0625 C 760.507812 48.394531 761.398438 46.167969 763.175781 44.445312 C 764.957031 42.71875 767.179688 41.828125 769.851562 41.828125 C 775.578125 41.828125 779.527344 45.054688 781.753906 51.5625 L 792.597656 44.554688 C 791.09375 39.550781 788.257812 35.546875 784.144531 32.542969 C 780.027344 29.539062 775.246094 28.039062 769.851562 28.039062 C 763.621094 28.039062 758.28125 30.09375 753.945312 34.15625 C 749.605469 38.214844 747.105469 43.386719 746.601562 49.5625 C 746.4375 53.398438 747.4375 57.179688 749.660156 60.851562 L 741.320312 60.851562 L 741.320312 74.363281 L 792.152344 74.363281 L 792.152344 60.851562 L 769.90625 60.851562 C 766.902344 60.851562 764.566406 59.792969 762.953125 57.734375 " clip-rule="nonzero"/></clipPath><clipPath id="55232f3989"><path d="M 0.28125 0 L 51.640625 0 L 51.640625 46.558594 L 0.28125 46.558594 Z M 0.28125 0 " clip-rule="nonzero"/></clipPath><clipPath id="95718c8947"><path d="M 21.898438 29.679688 C 20.285156 27.566406 19.507812 25.398438 19.507812 23.0625 C 19.507812 20.394531 20.398438 18.167969 22.175781 16.445312 C 23.957031 14.71875 26.179688 13.828125 28.851562 13.828125 C 34.578125 13.828125 38.527344 17.054688 40.753906 23.5625 L 51.597656 16.554688 C 50.09375 11.550781 47.257812 7.546875 43.144531 4.542969 C 39.027344 1.539062 34.246094 0.0390625 28.851562 0.0390625 C 22.621094 0.0390625 17.28125 2.09375 12.945312 6.15625 C 8.605469 10.214844 6.105469 15.386719 5.601562 21.5625 C 5.4375 25.398438 6.4375 29.179688 8.660156 32.851562 L 0.320312 32.851562 L 0.320312 46.363281 L 51.152344 46.363281 L 51.152344 32.851562 L 28.90625 32.851562 C 25.902344 32.851562 23.566406 31.792969 21.953125 29.734375 " clip-rule="nonzero"/></clipPath><clipPath id="647483cdbd"><rect x="0" width="52" y="0" height="47"/></clipPath><clipPath id="14ef852170"><path d="M 28 337 L 220 337 L 220 520 L 28 520 Z M 28 337 " clip-rule="nonzero"/></clipPath><clipPath id="e19a5344db"><path d="M 163.035156 453.382812 L 123.660156 363.898438 L 84.285156 453.382812 Z M 172.15625 474.238281 L 75.105469 474.238281 L 55.03125 519.898438 L 28.167969 519.898438 L 110.867188 337.257812 L 136.671875 337.257812 L 219.652344 519.898438 L 192.289062 519.898438 Z M 172.15625 474.238281 " clip-rule="nonzero"/></clipPath><clipPath id="a7198ebd21"><path d="M 0 0.121094 L 191.761719 0.121094 L 191.761719 183 L 0 183 Z M 0 0.121094 " clip-rule="nonzero"/></clipPath><clipPath id="f9c4b40235"><path d="M 135.035156 116.382812 L 95.660156 26.898438 L 56.285156 116.382812 Z M 144.15625 137.238281 L 47.105469 137.238281 L 27.03125 182.898438 L 0.167969 182.898438 L 82.867188 0.257812 L 108.671875 0.257812 L 191.652344 182.898438 L 164.289062 182.898438 Z M 144.15625 137.238281 " clip-rule="nonzero"/></clipPath><clipPath id="d69525bb8f"><rect x="0" width="192" y="0" height="183"/></clipPath><clipPath id="d1db33ae09"><path d="M 243 326.222656 L 379.972656 326.222656 L 379.972656 520 L 243 520 Z M 243 326.222656 " clip-rule="nonzero"/></clipPath><clipPath id="5b40c7048d"><path d="M 296.898438 455.4375 L 268.203125 482.078125 L 268.203125 519.898438 L 243.175781 519.898438 L 243.175781 326.300781 L 268.203125 326.300781 L 268.203125 450.488281 L 343.617188 381.636719 L 373.871094 381.636719 L 315.699219 438.753906 L 379.597656 519.898438 L 348.789062 519.898438 Z M 296.898438 455.4375 " clip-rule="nonzero"/></clipPath><clipPath id="1f860f12db"><path d="M 0.0390625 0.222656 L 136.601562 0.222656 L 136.601562 194 L 0.0390625 194 Z M 0.0390625 0.222656 " clip-rule="nonzero"/></clipPath><clipPath id="23240fade1"><path d="M 53.898438 129.4375 L 25.203125 156.078125 L 25.203125 193.898438 L 0.175781 193.898438 L 0.175781 0.300781 L 25.203125 0.300781 L 25.203125 124.488281 L 100.617188 55.636719 L 130.871094 55.636719 L 72.699219 112.753906 L 136.597656 193.898438 L 105.789062 193.898438 Z M 53.898438 129.4375 " clip-rule="nonzero"/></clipPath><clipPath id="6854bfafe0"><rect x="0" width="137" y="0" height="194"/></clipPath><clipPath id="664105fe5c"><path d="M 385 326.222656 L 529 326.222656 L 529 522 L 385 522 Z M 385 326.222656 " clip-rule="nonzero"/></clipPath><clipPath id="7d4fbfe589"><path d="M 481.097656 493.425781 C 488.214844 489.363281 493.777344 483.582031 497.78125 476.183594 C 501.785156 468.785156 503.789062 460.332031 503.789062 450.769531 C 503.789062 441.203125 501.785156 432.75 497.78125 425.351562 C 493.777344 417.953125 488.214844 412.28125 481.097656 408.277344 C 473.976562 404.273438 466.023438 402.269531 457.347656 402.269531 C 448.449219 402.269531 440.496094 404.273438 433.492188 408.277344 C 426.484375 412.28125 420.867188 417.953125 416.804688 425.351562 C 412.746094 432.75 410.6875 441.203125 410.6875 450.769531 C 410.6875 460.332031 412.746094 468.785156 416.804688 476.183594 C 420.867188 483.582031 426.484375 489.308594 433.492188 493.425781 C 440.496094 497.539062 448.507812 499.542969 457.347656 499.542969 C 466.023438 499.542969 473.976562 497.484375 481.097656 493.425781 M 528.59375 326.300781 L 528.59375 519.898438 L 504.566406 519.898438 L 504.566406 497.984375 C 499.003906 505.660156 491.941406 511.445312 483.433594 515.449219 C 474.921875 519.453125 465.523438 521.453125 455.234375 521.453125 C 441.832031 521.453125 429.820312 518.507812 419.253906 512.554688 C 408.6875 506.605469 400.34375 498.320312 394.335938 487.640625 C 388.332031 476.960938 385.328125 464.671875 385.328125 450.710938 C 385.328125 436.753906 388.332031 424.515625 394.335938 413.949219 C 400.34375 403.382812 408.628906 395.097656 419.253906 389.144531 C 429.875 383.195312 441.886719 380.304688 455.234375 380.304688 C 465.136719 380.304688 474.257812 382.195312 482.597656 385.921875 C 490.941406 389.648438 497.894531 395.207031 503.453125 402.492188 L 503.453125 326.300781 Z M 528.59375 326.300781 " clip-rule="nonzero"/></clipPath><clipPath id="62b2d22340"><path d="M 0.121094 0.222656 L 143.640625 0.222656 L 143.640625 195.679688 L 0.121094 195.679688 Z M 0.121094 0.222656 " clip-rule="nonzero"/></clipPath><clipPath id="8eab04f3d3"><path d="M 96.097656 167.425781 C 103.214844 163.363281 108.777344 157.582031 112.78125 150.183594 C 116.785156 142.785156 118.789062 134.332031 118.789062 124.769531 C 118.789062 115.203125 116.785156 106.75 112.78125 99.351562 C 108.777344 91.953125 103.214844 86.28125 96.097656 82.277344 C 88.976562 78.273438 81.023438 76.269531 72.347656 76.269531 C 63.449219 76.269531 55.496094 78.273438 48.492188 82.277344 C 41.484375 86.28125 35.867188 91.953125 31.804688 99.351562 C 27.746094 106.75 25.6875 115.203125 25.6875 124.769531 C 25.6875 134.332031 27.746094 142.785156 31.804688 150.183594 C 35.867188 157.582031 41.484375 163.308594 48.492188 167.425781 C 55.496094 171.539062 63.507812 173.542969 72.347656 173.542969 C 81.023438 173.542969 88.976562 171.484375 96.097656 167.425781 M 143.59375 0.300781 L 143.59375 193.898438 L 119.566406 193.898438 L 119.566406 171.984375 C 114.003906 179.660156 106.941406 185.445312 98.433594 189.449219 C 89.921875 193.453125 80.523438 195.453125 70.234375 195.453125 C 56.832031 195.453125 44.820312 192.507812 34.253906 186.554688 C 23.6875 180.605469 15.34375 172.320312 9.335938 161.640625 C 3.332031 150.960938 0.328125 138.671875 0.328125 124.710938 C 0.328125 110.753906 3.332031 98.515625 9.335938 87.949219 C 15.34375 77.382812 23.628906 69.097656 34.253906 63.144531 C 44.875 57.195312 56.886719 54.304688 70.234375 54.304688 C 80.136719 54.304688 89.257812 56.195312 97.597656 59.921875 C 105.941406 63.648438 112.894531 69.207031 118.453125 76.492188 L 118.453125 0.300781 Z M 143.59375 0.300781 " clip-rule="nonzero"/></clipPath><clipPath id="aa3d019a6b"><rect x="0" width="144" y="0" height="196"/></clipPath><clipPath id="a86ba1a90d"><path d="M 563 380 L 707 380 L 707 522 L 563 522 Z M 563 380 " clip-rule="nonzero"/></clipPath><clipPath id="836e5040bf"><path d="M 659.007812 493.425781 C 666.128906 489.363281 671.691406 483.582031 675.695312 476.183594 C 679.699219 468.785156 681.699219 460.332031 681.699219 450.769531 C 681.699219 441.203125 679.699219 432.75 675.695312 425.351562 C 671.691406 417.953125 666.128906 412.28125 659.007812 408.277344 C 651.890625 404.273438 643.9375 402.269531 635.261719 402.269531 C 626.363281 402.269531 618.410156 404.273438 611.402344 408.277344 C 604.394531 412.28125 598.777344 417.953125 594.71875 425.351562 C 590.660156 432.75 588.601562 441.203125 588.601562 450.769531 C 588.601562 460.332031 590.660156 468.785156 594.71875 476.183594 C 598.777344 483.582031 604.394531 489.308594 611.402344 493.425781 C 618.410156 497.539062 626.417969 499.542969 635.261719 499.542969 C 643.9375 499.542969 651.890625 497.484375 659.007812 493.425781 M 706.503906 381.636719 L 706.503906 519.898438 L 682.480469 519.898438 L 682.480469 497.984375 C 676.917969 505.660156 669.855469 511.445312 661.34375 515.449219 C 652.835938 519.453125 643.4375 521.453125 633.148438 521.453125 C 619.746094 521.453125 607.734375 518.507812 597.164062 512.554688 C 586.597656 506.605469 578.257812 498.320312 572.25 487.640625 C 566.242188 476.960938 563.242188 464.671875 563.242188 450.710938 C 563.242188 436.753906 566.242188 424.515625 572.25 413.949219 C 578.257812 403.382812 586.542969 395.097656 597.164062 389.144531 C 607.789062 383.195312 619.800781 380.304688 633.148438 380.304688 C 643.046875 380.304688 652.167969 382.195312 660.511719 385.921875 C 668.851562 389.648438 675.804688 395.207031 681.367188 402.492188 L 681.367188 381.636719 Z M 706.503906 381.636719 " clip-rule="nonzero"/></clipPath><clipPath id="1fa8506e5b"><path d="M 0.199219 0.078125 L 143.71875 0.078125 L 143.71875 141.679688 L 0.199219 141.679688 Z M 0.199219 0.078125 " clip-rule="nonzero"/></clipPath><clipPath id="4360362b12"><path d="M 96.007812 113.425781 C 103.128906 109.363281 108.691406 103.582031 112.695312 96.183594 C 116.699219 88.785156 118.699219 80.332031 118.699219 70.769531 C 118.699219 61.203125 116.699219 52.75 112.695312 45.351562 C 108.691406 37.953125 103.128906 32.28125 96.007812 28.277344 C 88.890625 24.273438 80.9375 22.269531 72.261719 22.269531 C 63.363281 22.269531 55.410156 24.273438 48.402344 28.277344 C 41.394531 32.28125 35.777344 37.953125 31.71875 45.351562 C 27.660156 52.75 25.601562 61.203125 25.601562 70.769531 C 25.601562 80.332031 27.660156 88.785156 31.71875 96.183594 C 35.777344 103.582031 41.394531 109.308594 48.402344 113.425781 C 55.410156 117.539062 63.417969 119.542969 72.261719 119.542969 C 80.9375 119.542969 88.890625 117.484375 96.007812 113.425781 M 143.503906 1.636719 L 143.503906 139.898438 L 119.480469 139.898438 L 119.480469 117.984375 C 113.917969 125.660156 106.855469 131.445312 98.34375 135.449219 C 89.835938 139.453125 80.4375 141.453125 70.148438 141.453125 C 56.746094 141.453125 44.734375 138.507812 34.164062 132.554688 C 23.597656 126.605469 15.257812 118.320312 9.25 107.640625 C 3.242188 96.960938 0.242188 84.671875 0.242188 70.710938 C 0.242188 56.753906 3.242188 44.515625 9.25 33.949219 C 15.257812 23.382812 23.542969 15.097656 34.164062 9.144531 C 44.789062 3.195312 56.800781 0.304688 70.148438 0.304688 C 80.046875 0.304688 89.167969 2.195312 97.511719 5.921875 C 105.851562 9.648438 112.804688 15.207031 118.367188 22.492188 L 118.367188 1.636719 Z M 143.503906 1.636719 " clip-rule="nonzero"/></clipPath><clipPath id="00131ab1f2"><rect x="0" width="144" y="0" height="142"/></clipPath><clipPath id="80652b62bd"><path d="M 754 326.300781 L 779.027344 326.300781 L 779.027344 519.898438 L 754 519.898438 Z M 754 326.300781 " clip-rule="nonzero"/></clipPath><clipPath id="a84585539e"><path d="M 0 0.300781 L 25.027344 0.300781 L 25.027344 193.898438 L 0 193.898438 Z M 0 0.300781 " clip-rule="nonzero"/></clipPath><clipPath id="4a4eda9199"><rect x="0" width="26" y="0" height="194"/></clipPath><clipPath id="51ee521b62"><path d="M 1070.210938 285.632812 L 1324 285.632812 L 1324 586 L 1070.210938 586 Z M 1070.210938 285.632812 " clip-rule="nonzero"/></clipPath><clipPath id="574276a355"><path d="M 1323.859375 285.953125 L 1070.644531 432.109375 L 1070.644531 585.941406 L 1323.859375 439.785156 Z M 1323.859375 285.953125 " clip-rule="nonzero"/></clipPath><clipPath id="031d079996"><path d="M 0.558594 0.761719 L 254 0.761719 L 254 301 L 0.558594 301 Z M 0.558594 0.761719 " clip-rule="nonzero"/></clipPath><clipPath id="9d888ae249"><path d="M 253.859375 0.953125 L 0.644531 147.109375 L 0.644531 300.941406 L 253.859375 154.785156 Z M 253.859375 0.953125 " clip-rule="nonzero"/></clipPath><clipPath id="a4a6dbb545"><rect x="0" width="254" y="0" height="301"/></clipPath><clipPath id="71616ef873"><path d="M 937.265625 33.554688 L 1308 33.554688 L 1308 432.390625 L 937.265625 432.390625 Z M 937.265625 33.554688 " clip-rule="nonzero"/></clipPath><clipPath id="6bb6ee85d7"><path d="M 1307.121094 110.652344 L 1114.859375 221.660156 C 1087.496094 237.457031 1070.644531 266.652344 1070.644531 298.1875 L 1070.644531 432.109375 L 937.445312 355.082031 L 937.445312 272.992188 C 937.445312 209.371094 971.371094 150.640625 1026.484375 118.828125 L 1173.867188 33.738281 Z M 1307.121094 110.652344 " clip-rule="nonzero"/></clipPath><clipPath id="a99a00c7d4"><path d="M 0.359375 0.554688 L 370.199219 0.554688 L 370.199219 399.160156 L 0.359375 399.160156 Z M 0.359375 0.554688 " clip-rule="nonzero"/></clipPath><clipPath id="0cab054491"><path d="M 370.121094 77.652344 L 177.859375 188.660156 C 150.496094 204.457031 133.644531 233.652344 133.644531 265.1875 L 133.644531 399.109375 L 0.445312 322.082031 L 0.445312 239.992188 C 0.445312 176.371094 34.371094 117.640625 89.484375 85.828125 L 236.867188 0.738281 Z M 370.121094 77.652344 " clip-rule="nonzero"/></clipPath><clipPath id="332d13d574"><rect x="0" width="371" y="0" height="400"/></clipPath><clipPath id="5dbb48417d"><rect x="0" width="1352" y="0" height="616"/></clipPath></defs><g transform="matrix(1, 0, 0, 1, 44, 98)"><g clip-path="url(#5dbb48417d)"><g clip-path="url(#1652ed04ff)"><g clip-path="url(#7d87c446c9)"><g transform="matrix(1, 0, 0, 1, 57, 88)"><g clip-path="url(#142ee426be)"><g clip-path="url(#5859f47ab7)"><g clip-path="url(#24eb1b88f3)"><rect x="-625.16" width="2488.32" fill="#000000" y="-480.839997" height="1399.679988" fill-opacity="1"/></g></g></g></g></g></g><g clip-path="url(#3cd35f1c55)"><g transform="matrix(1, 0, 0, 1, 242, 88)"><g clip-path="url(#e7005c36f1)"><g clip-path="url(#2106338558)"><rect x="-810.16" width="2488.32" fill="#000000" y="-480.839997" height="1399.679988" fill-opacity="1"/></g></g></g></g><g clip-path="url(#725e8fb578)"><g clip-path="url(#e6dce06903)"><g transform="matrix(1, 0, 0, 1, 304, 71)"><g clip-path="url(#a3452f9f01)"><g clip-path="url(#778d216804)"><g clip-path="url(#6e5fade51e)"><rect x="-872.16" width="2488.32" fill="#000000" y="-463.839997" height="1399.679988" fill-opacity="1"/></g></g></g></g></g></g><g clip-path="url(#91985ef5b8)"><g transform="matrix(1, 0, 0, 1, 752, 88)"><g clip-path="url(#ab3f444e63)"><g clip-path="url(#1b1ed903c6)"><rect x="-1320.16" width="2488.32" fill="#000000" y="-480.839997" height="1399.679988" fill-opacity="1"/></g></g></g></g><g clip-path="url(#70b4b1396a)"><g clip-path="url(#e5bd2f81df)"><g transform="matrix(1, 0, 0, 1, 741, 28)"><g clip-path="url(#647483cdbd)"><g clip-path="url(#55232f3989)"><g clip-path="url(#95718c8947)"><rect x="-1309.16" width="2488.32" fill="#000000" y="-420.839997" height="1399.679988" fill-opacity="1"/></g></g></g></g></g></g><g clip-path="url(#14ef852170)"><g clip-path="url(#e19a5344db)"><g transform="matrix(1, 0, 0, 1, 28, 337)"><g clip-path="url(#d69525bb8f)"><g clip-path="url(#a7198ebd21)"><g clip-path="url(#f9c4b40235)"><rect x="-596.16" width="2488.32" fill="#000000" y="-729.839997" height="1399.679988" fill-opacity="1"/></g></g></g></g></g></g><g clip-path="url(#d1db33ae09)"><g clip-path="url(#5b40c7048d)"><g transform="matrix(1, 0, 0, 1, 243, 326)"><g clip-path="url(#6854bfafe0)"><g clip-path="url(#1f860f12db)"><g clip-path="url(#23240fade1)"><rect x="-811.16" width="2488.32" fill="#000000" y="-718.839997" height="1399.679988" fill-opacity="1"/></g></g></g></g></g></g><g clip-path="url(#664105fe5c)"><g clip-path="url(#7d4fbfe589)"><g transform="matrix(1, 0, 0, 1, 385, 326)"><g clip-path="url(#aa3d019a6b)"><g clip-path="url(#62b2d22340)"><g clip-path="url(#8eab04f3d3)"><rect x="-953.16" width="2488.32" fill="#000000" y="-718.839997" height="1399.679988" fill-opacity="1"/></g></g></g></g></g></g><g clip-path="url(#a86ba1a90d)"><g clip-path="url(#836e5040bf)"><g transform="matrix(1, 0, 0, 1, 563, 380)"><g clip-path="url(#00131ab1f2)"><g clip-path="url(#1fa8506e5b)"><g clip-path="url(#4360362b12)"><rect x="-1131.16" width="2488.32" fill="#000000" y="-772.839997" height="1399.679988" fill-opacity="1"/></g></g></g></g></g></g><g clip-path="url(#80652b62bd)"><g transform="matrix(1, 0, 0, 1, 754, 326)"><g clip-path="url(#4a4eda9199)"><g clip-path="url(#a84585539e)"><rect x="-1322.16" width="2488.32" fill="#000000" y="-718.839997" height="1399.679988" fill-opacity="1"/></g></g></g></g><g clip-path="url(#51ee521b62)"><g clip-path="url(#574276a355)"><g transform="matrix(1, 0, 0, 1, 1070, 285)"><g clip-path="url(#a4a6dbb545)"><g clip-path="url(#031d079996)"><g clip-path="url(#9d888ae249)"><rect x="-1638.16" width="2488.32" fill="#bc8066" y="-677.839997" height="1399.679988" fill-opacity="1"/></g></g></g></g></g></g><g clip-path="url(#71616ef873)"><g clip-path="url(#6bb6ee85d7)"><g transform="matrix(1, 0, 0, 1, 937, 33)"><g clip-path="url(#332d13d574)"><g clip-path="url(#a99a00c7d4)"><g clip-path="url(#0cab054491)"><rect x="-1505.16" width="2488.32" fill="#bc8066" y="-425.839997" height="1399.679988" fill-opacity="1"/></g></g></g></g></g></g></g></g></svg>